<?xml version="1.0" encoding="UTF-8"?>
<!DOCTYPE svg PUBLIC "-//W3C//DTD SVG 1.1//EN" "http://www.w3.org/Graphics/SVG/1.1/DTD/svg11.dtd">
<!-- Creator: CorelDRAW X7 -->
<svg xmlns="http://www.w3.org/2000/svg" xml:space="preserve" width="500px" height="500px" version="1.1" style="shape-rendering:geometricPrecision; text-rendering:geometricPrecision; image-rendering:optimizeQuality; fill-rule:evenodd; clip-rule:evenodd"
viewBox="0 0 500 500"
 xmlns:xlink="http://www.w3.org/1999/xlink">
 <defs>
  <style type="text/css">
   <![CDATA[
    .fil8 {fill:#2E2A25}
    .fil4 {fill:#670D24}
    .fil0 {fill:#8A1A6E}
    .fil5 {fill:#971734}
    .fil3 {fill:#C31C44}
    .fil9 {fill:#CD96AF}
    .fil6 {fill:#D4B46D}
    .fil2 {fill:#DAA335}
    .fil10 {fill:#EEB4CF}
    .fil7 {fill:#FBEACD}
    .fil1 {fill:#FCBB3B}
   ]]>
  </style>
 </defs>
 <g id="Layer_x0020_1">
  <metadata id="CorelCorpID_0Corel-Layer"/>
  <g id="_1917833448416">
   <path class="fil0" d="M444 248c5,-3 10,-8 12,-15 -3,3 -4,6 -12,10 -16,7 -35,3 -49,-6l-5 -2 -13 -11 -28 -22 -1 -1c-1,-1 -5,-4 -6,-5 -7,-5 -12,-8 -19,-12 -30,-19 -68,-26 -102,-15 -22,7 -35,19 -51,33 -8,6 -14,14 -22,21 -3,3 -7,6 -11,10 -3,2 -9,6 -12,9 5,-1 1,0 4,-2 1,-1 2,-1 3,-2 -2,0 -1,1 -1,1 -1,0 -1,0 -3,1 -1,2 0,2 -3,2l4 2c3,1 10,-5 10,-5 1,-1 2,0 3,-1l12 -9c2,-2 1,1 4,-1 1,1 2,1 4,2l0 -2c3,0 1,1 2,1 2,-2 2,0 2,-3 1,0 0,0 1,0l2 0c0,0 0,-1 0,-1l1 -1c0,-1 0,1 0,-2l1 2c2,-1 2,-2 3,-4 2,0 1,0 3,-1 2,-2 2,-2 1,-3 3,0 3,-1 4,-4l2 0c-1,1 0,1 -1,0l0 2c1,-1 13,-11 17,-15 7,-5 13,-9 21,-12 17,-6 38,-6 56,-1 38,11 73,46 80,47 0,1 0,1 1,1 -1,1 -1,0 0,1 0,-2 1,-1 0,-1 0,-1 0,-1 -1,-1l-2 -1c2,-2 0,1 3,0 0,1 -1,1 1,2l2 0c0,0 -1,0 -1,1 2,1 1,0 2,0l1 2c2,-1 2,-1 4,0 -1,0 0,0 -1,0 -1,0 0,0 -1,0l-1 0c0,1 1,-1 0,1l2 -1c1,1 0,0 1,1l2 1c1,-1 1,-1 1,-1 0,0 0,0 0,1 0,1 0,0 0,1 3,0 2,0 3,-2 3,2 8,4 11,5 3,1 6,3 10,3l1 1c1,0 0,0 1,0 0,0 1,0 1,0l8 2c6,2 24,3 29,1l4 0 2 -2c1,1 1,0 0,2 1,-1 1,-1 1,-1 0,-2 2,-2 4,-2 -1,0 -1,1 -2,0l1 1zm-6 3c2,0 2,0 2,-1 0,-1 -1,1 -2,1zm-75 -13c0,0 0,0 1,0l1 1c-1,-1 0,-1 -1,-1l-1 0zm-200 -6c-1,0 -1,0 -1,1 -1,0 0,0 -1,1l0 0c-1,0 -1,0 -1,1 -1,-1 -1,-1 0,0 -1,0 -1,-1 -1,0 -1,0 -1,0 -1,1 1,0 1,0 1,-1 1,1 1,1 1,0 0,0 0,0 0,0 1,0 1,0 1,-1 1,0 1,1 0,0 2,-1 1,0 1,-1 1,0 1,0 1,-1 2,0 18,-16 19,-18 -3,2 -16,16 -19,17 0,-1 0,0 0,-1 0,0 0,0 0,-1 0,0 0,0 0,0 0,0 0,0 0,0l0 -1c0,1 0,1 -1,1 0,0 0,0 0,0l0 1c1,0 1,0 1,0 0,1 -1,0 0,2 -1,0 -1,-1 0,0zm-45 14c-2,1 -8,4 -10,5 2,0 1,1 3,0l10 -3c0,0 2,0 0,-1 4,1 5,-1 8,-2 0,-2 0,-1 -1,-1l-2 0c0,0 0,0 0,0l0 0c-7,0 -7,4 -10,4 2,-1 1,0 2,-2zm4 -2c1,0 1,0 1,-1 1,1 1,1 1,0 -1,0 -1,0 -1,0 -1,0 -1,0 -1,1 -1,0 -1,0 -1,1 2,-1 1,0 1,-1z"/>
   <path class="fil1" d="M332 302c12,-20 9,-44 -4,-63 -1,-2 -4,-6 -6,-7 -2,-2 -5,-4 -7,-7 -1,0 -1,0 -3,-1 -1,0 -3,0 -2,-1l-1 -1 1 1c-1,0 -3,-1 -3,-1l0 -1 -1 0 1 0 -1 0c-1,0 -1,0 -3,-1l-8 -2c-11,-2 -22,-3 -33,-1 -1,0 -4,1 -5,1 5,1 12,3 16,6 -1,-3 0,0 1,-1 1,1 10,4 12,5 5,2 8,4 12,6 5,3 11,9 15,13 0,1 1,1 2,2 1,1 1,2 2,3 5,7 9,16 10,25 0,5 0,12 -1,17 0,3 -1,5 -1,7 -1,3 -2,5 -3,7 0,0 0,0 0,0l0 1c0,0 0,0 0,0 -1,2 -1,5 -3,5 -1,-1 -1,-1 -1,-3l-6 0c-1,1 1,1 -2,1l0 3c-1,-1 -1,-2 -1,-4 2,-1 2,1 2,-3 -5,0 -4,1 -6,2l0 1 -1 0c-2,4 -1,4 -5,9l-5 5c-3,3 -10,10 -15,10 0,1 1,1 -1,1 -1,1 -3,1 -1,2 -2,0 -2,0 -4,1 -3,2 -4,0 -3,3 -2,-1 -4,-1 -5,0 2,2 7,0 11,-1 2,0 3,0 4,-1 2,0 3,0 4,-1l2 0c3,-1 6,-1 7,-4 3,0 10,-3 11,-4 2,-2 2,-1 3,-2 1,-2 0,-2 3,-3 2,0 2,-1 4,-2l10 -11c1,-1 1,0 2,-1l3 -6c2,-2 1,-2 3,-4zm-56 35l1 -1 -1 1zm5 -3l1 0 -1 0zm25 -27l1 0 -1 -1 0 1c-1,1 -1,-1 0,1 -1,0 -1,0 -1,1 1,0 1,0 1,-1 0,0 0,1 0,-1z"/>
   <path class="fil2" d="M306 306l1 1 -1 0c0,2 0,1 0,1 0,1 0,1 -1,1l0 1c-1,0 0,-1 -1,1l1 0 0 -1c2,-1 1,-2 6,-2 0,4 0,2 -2,3 0,2 0,3 1,4l0 -3c3,0 1,0 2,-1l6 0c0,2 0,2 1,3 2,0 2,-3 3,-5 0,0 0,0 0,0l0 -1c0,0 0,0 0,0 1,-2 2,-4 3,-7 0,-2 1,-4 1,-7 1,-5 1,-12 1,-17 -1,-9 -5,-18 -10,-25 -1,-1 -1,-2 -2,-3 -1,-1 -2,-1 -2,-2 -4,-4 -10,-10 -15,-13 -4,-2 -7,-4 -12,-6 -2,-1 -11,-4 -12,-5 -1,1 -2,-2 -1,1 3,2 10,7 12,10 1,1 0,0 0,1 5,2 16,22 17,25l1 0c1,2 1,4 2,5 3,8 1,7 4,16 2,7 -3,18 -1,21l-1 0c0,0 0,0 0,0 -1,2 -1,3 -1,4zm0 -4c-1,0 0,1 0,2 1,0 1,-1 0,-2z"/>
   <path class="fil3" d="M190 305c-2,-2 -6,-5 -8,-7 -13,-12 -25,-26 -40,-35 -6,-3 -13,-6 -19,-7 -2,-1 -2,0 -3,-2 -3,1 -8,0 -12,0 -3,0 -5,0 -7,0 -2,0 -5,2 -6,0 -2,0 -2,1 -5,1 -4,1 -2,0 -4,2 6,0 11,1 16,2 1,-1 11,3 12,3l5 2c1,1 4,3 8,5 3,1 1,0 4,2 1,1 1,1 2,2l9 7c2,1 0,0 2,2 1,1 1,1 2,2 0,1 1,1 2,2l2 2c1,1 1,0 2,2l14 14c1,1 1,0 1,2 1,1 1,1 2,2 1,1 2,2 3,2 2,1 1,1 2,0l0 1c1,2 2,2 3,1l0 2c1,-2 0,-1 2,-1 -1,0 -1,0 -2,1 2,2 1,2 3,2l1 0c0,0 0,0 0,-1 0,-3 0,0 3,-2 2,2 2,2 4,2 0,-1 1,0 1,-2 3,0 1,0 2,-2l4 0c-2,-3 0,-3 -5,-3 0,0 0,0 1,0 0,0 0,0 0,0l-1 -3zm3 3c1,1 0,1 1,0 0,1 0,1 1,1l0 0 0 0c0,-1 0,-1 -1,-1 0,0 1,0 -1,0l0 -1 -1 0 -1 -1 0 0c0,1 0,0 0,0l1 1 1 0c0,1 -1,1 0,1z"/>
   <path class="fil0" d="M271 283c1,1 1,0 1,1 -2,2 -9,10 -11,11 -2,2 -6,4 -8,6 -6,4 -6,3 -11,3 0,-6 -3,-4 -4,-7 1,-1 1,0 2,-1 1,0 1,1 2,0 -1,-1 -2,-1 -4,-1 0,-2 1,-1 0,-3 2,0 5,0 6,-1 -17,1 -29,0 -44,-7l-1 -1 0 0 -1 0 -2 -1c-1,0 -1,0 -1,-1l0 0 -2 -1 0 1c4,10 12,19 20,25 7,5 21,13 31,13l3 0c1,0 5,-3 6,-3 4,-4 11,-9 14,-14l2 -1c6,-8 10,-18 14,-28 -2,1 -4,4 -6,5 -1,2 -5,4 -6,5z"/>
   <path class="fil4" d="M206 335c2,0 1,0 1,1l2 0 1 1c0,0 1,0 1,0 1,0 1,0 1,1 5,3 29,7 36,7 5,-1 10,-2 15,-3 4,-2 10,-4 13,-5l1 -1 1 0 1 -1 2 -1 1 0c5,-4 11,-7 14,-13 2,-3 4,-4 6,-8 1,-2 3,-8 4,-9 0,-1 -1,-2 0,-2l0 -2c-6,9 -14,15 -25,19 -20,8 -33,5 -40,6 -2,1 -1,0 -3,0l4 2c0,0 -2,0 -2,0 -1,0 0,0 -3,1l2 -2c-3,0 -2,0 -4,1l2 1c-2,1 -3,2 -5,3 -4,2 -6,-1 -12,1 -2,1 1,1 -3,1 -1,0 -2,0 -3,0l-1 -1c0,0 0,0 0,0 0,1 2,1 -1,1l1 1 -5 0c0,0 -1,-1 -2,1z"/>
   <path class="fil0" d="M256 188l-4 4c-1,2 -2,2 -3,1l1 -1 0 0 0 0 -1 1 0 0 0 1c-2,2 -6,6 -7,8 -2,2 -6,8 -7,9 0,1 0,1 0,1 -3,6 -9,15 -10,21 1,-1 5,-5 6,-6 1,-1 3,-2 4,-3 1,-1 2,-1 4,-3 -1,-1 -1,-1 -1,-1 0,0 6,-5 7,-6 0,-1 0,-1 1,-1 0,0 0,0 0,0 1,-1 0,-1 1,-1 0,0 0,0 1,0l1 -2c8,-5 11,-7 21,-11 5,-1 3,-1 8,1 -4,1 -2,-2 -1,8 1,0 4,0 5,1 -1,0 -2,0 -3,0 -2,0 -2,-1 -4,-1 1,2 2,2 2,4 4,0 4,0 8,2l-4 0c2,1 10,2 13,3 5,1 8,2 12,4l1 0 0 0 0 1 2 0 1 1 2 1c2,1 2,1 3,1l0 -1c-1,-1 -3,-5 -4,-7 -13,-18 -25,-27 -49,-31l-3 1c1,0 0,0 0,-1l-4 0 1 1 0 1z"/>
   <path class="fil1" d="M240 286c-4,0 -14,-4 -18,-5 -6,-2 -8,-4 -12,-6 -2,-1 -3,-1 -4,-3 9,0 8,1 8,-6 1,1 1,0 1,1 2,-2 -1,0 -1,-3 0,-3 0,-1 1,-2 -4,-2 -2,-2 -6,-9 -2,-4 0,2 -2,-5 -1,-2 -3,-3 -3,-5 -1,-5 -2,-5 -3,-12 -1,-5 -2,-8 -2,-8 0,-3 0,-2 -1,-4 -2,1 -1,2 -4,5 0,1 0,0 0,1l-5 17c0,3 -1,6 -1,9 0,11 1,14 3,22 2,6 2,4 4,6 3,2 2,1 4,2 0,0 2,3 7,3 4,1 1,2 8,3 3,0 3,0 5,1 2,1 3,0 5,0 4,1 11,1 13,0 2,1 6,0 8,0 -1,-1 -3,-1 -5,-2zm-25 -22c0,2 0,1 1,1l-1 -1zm1 2l0 0 0 0z"/>
   <path class="fil3" d="M233 211c0,-1 0,-2 0,-3 1,1 1,1 0,3l1 0c1,-5 12,-15 15,-18l0 0 1 -1 0 0 6 -4 0 -1 -1 -1c-18,0 -32,5 -45,16 -2,2 -3,3 -5,5 -1,2 -3,5 -5,5 -1,9 3,24 7,32 2,4 4,8 6,12 2,2 3,3 4,5 5,8 4,5 5,4 -3,-4 -3,-12 -2,-16l-1 6c-2,-2 -3,-12 -4,-16 -1,-6 0,-12 -1,-18 0,-4 1,-10 3,-13 0,-1 0,-1 0,0 0,0 0,-1 0,-1 1,-3 3,-2 7,-1l1 2c1,0 3,0 4,0 2,0 1,1 1,0 1,1 1,-1 1,2 2,-3 1,-2 1,-1 0,0 1,-1 0,0 0,0 0,1 0,2 0,0 0,0 1,0z"/>
   <path class="fil3" d="M267 305l-3 2c-1,2 0,2 -3,4 -3,2 -10,7 -12,8 5,1 10,0 15,0 7,0 19,-6 25,-9 3,-2 7,-5 10,-8 3,-2 5,-6 8,-8 1,-3 0,-3 0,-6 1,-8 -3,-21 -7,-28 -2,-5 -10,-18 -14,-21l0 2 1 1 0 1c1,3 2,7 1,10 2,2 2,1 2,5 1,4 3,7 3,12 2,5 1,16 0,22 -2,15 -6,13 -7,15 -1,-1 -1,0 -3,0 1,-2 1,0 1,-3l-3 0c-1,0 -1,0 -1,0l0 1c-2,3 -1,-1 -3,-2 -2,-1 -4,1 -5,1 -1,-1 0,0 -2,-1l0 4c-1,-4 1,-1 -1,-3 0,0 0,0 0,0l-1 1c-1,-2 0,0 -1,-1 0,2 -1,2 -2,3l2 -2z"/>
   <path class="fil5" d="M241 325c-1,-1 -10,-2 -13,-2 -4,-1 -8,-2 -12,-4 -12,-4 -15,-7 -21,-10l0 0c-1,0 -1,0 -1,-1 -1,1 0,1 -1,0 -1,0 0,0 0,-1l-1 0 -1 -1c0,0 0,1 0,0l-1 -1 1 3c0,0 0,0 0,0 -1,0 -1,0 -1,0 5,0 3,0 5,3l-4 0c-1,2 1,2 -2,2 0,2 -1,1 -1,2 -2,0 -2,0 -4,-2 -3,2 -3,-1 -3,2 0,1 0,1 0,1l-1 0c-2,0 -1,0 -3,-2 1,-1 1,-1 2,-1 -2,0 -1,-1 -2,1l0 -2c-1,1 -2,1 -3,-1l0 -1c-1,1 0,1 -2,0 -1,0 -2,-1 -3,-2 -1,-1 -1,-1 -2,-2 0,-2 0,-1 -1,-2l-14 -14c-1,-2 -1,-1 -2,-2l-2 -2c-1,-1 -2,-1 -2,-2 -1,-1 -1,-1 -2,-2 -2,-2 0,-1 -2,-2l-9 -7c-1,-1 -1,-1 -2,-2 -3,-2 -1,-1 -4,-2 -4,-2 -7,-4 -8,-5l-5 -2c-1,0 -11,-4 -12,-3 24,6 39,21 54,36 8,8 15,15 23,23 5,5 20,15 27,17l1 1c1,0 0,0 2,0 0,1 -1,1 1,1 1,1 1,1 2,1 0,-1 0,-1 -1,-1 0,0 -1,0 -1,0l-1 -1 -2 0c0,-1 1,-1 -1,-1 1,-2 2,-1 2,-1l5 0 -1 -1c3,0 1,0 1,-1 0,0 0,0 0,0l1 1c1,0 2,0 3,0 4,0 1,0 3,-1 6,-2 8,1 12,-1 2,-1 3,-2 5,-3l-2 -1c2,-1 1,-1 4,-1l-2 2c3,-1 2,-1 3,-1 0,0 2,0 2,0l-4 -2c2,0 1,1 3,0z"/>
   <path class="fil1" d="M377 224c3,1 2,1 4,2 1,2 2,1 3,3 1,0 1,0 1,0 0,0 0,0 0,0 0,-1 -1,0 -2,-2 2,0 14,3 22,4 6,0 21,0 24,-4l2 0 -2 0c-6,1 -11,2 -17,1 -3,0 -6,-1 -8,-1 -3,0 -6,-1 -8,-1 -2,0 -1,0 -2,-1 -3,0 -10,-2 -12,-4 -2,0 -1,0 -1,0 -2,0 -1,0 -1,-1 -1,0 -1,1 -1,0l-1 -1c1,-3 4,-1 10,-2 3,0 7,0 10,-1 4,-1 12,-3 14,-7 -1,-1 1,-1 -1,-1 -3,1 -4,2 -7,2 -7,2 -21,1 -27,0 -6,-1 -24,-5 -28,-8l28 22z"/>
   <path class="fil4" d="M108 251c-2,0 -9,3 -13,3 1,2 4,0 6,0 2,0 4,0 7,0 4,0 9,1 12,0 12,1 37,-16 38,-18 0,-1 0,-1 1,-1 0,-1 0,0 1,0 -1,-1 -1,-1 0,0 0,-1 0,-1 1,-1l0 0c1,-1 0,-1 1,-1 0,-1 0,-1 1,-1 -1,-1 -1,0 0,0 -1,-2 0,-1 0,-2 0,0 0,0 -1,0l0 -1c0,0 0,0 0,0 1,0 1,0 1,-1l0 1c0,0 0,0 0,0 0,0 0,0 0,0 0,1 0,1 0,1 0,1 0,0 0,1 3,-1 16,-15 19,-17 1,0 0,1 1,0l0 -2c1,1 0,1 1,0l-2 0c-1,3 -1,4 -4,4 1,1 1,1 -1,3 -2,1 -1,1 -3,1 -1,2 -1,3 -3,4l-1 -2c0,3 0,1 0,2l-1 1c0,0 0,1 0,1l-2 0c-1,0 0,0 -1,0 0,3 0,1 -2,3 -1,0 1,-1 -2,-1l0 2c-2,-1 -3,-1 -4,-2 -3,2 -2,-1 -4,1l-12 9c-1,1 -2,0 -3,1 0,0 -7,6 -10,5l-4 -2c3,0 2,0 3,-2 2,-1 2,-1 3,-1 0,0 -1,-1 1,-1 -1,1 -2,1 -3,2 -3,2 1,1 -4,2l-1 1c0,1 0,1 -1,0 0,1 0,1 -1,1 0,1 1,0 -1,1l-3 1c-1,2 0,1 -2,2 3,0 3,-4 10,-4l0 0c0,0 0,0 0,0l2 0c1,0 1,-1 1,1 -3,1 -4,3 -8,2 2,1 0,1 0,1l-10 3c-2,1 -1,0 -3,0z"/>
   <path class="fil4" d="M357 233c1,0 1,0 1,1 1,0 0,-1 0,1l5 3 1 0c1,0 0,0 1,1 4,4 26,13 33,15 12,4 29,4 40,-3 1,0 2,-2 2,-1 2,0 1,0 2,-1 1,0 1,0 2,-1l-1 -1c1,1 1,0 2,0 -2,0 -4,0 -4,2 0,0 0,0 -1,1 1,-2 1,-1 0,-2l-2 2 -4 0c-5,2 -23,1 -29,-1l-8 -2c0,0 -1,0 -1,0 -1,0 0,0 -1,0l-1 -1c-4,0 -7,-2 -10,-3 -3,-1 -8,-3 -11,-5 -1,2 0,2 -3,2 0,-1 0,0 0,-1 0,-1 0,-1 0,-1 0,0 0,0 -1,1l-2 -1c-1,-1 0,0 -1,-1l-2 1c1,-2 0,0 0,-1l1 0c1,0 0,0 1,0 1,0 0,0 1,0 -2,-1 -2,-1 -4,0l-1 -2c-1,0 0,1 -2,0 0,-1 1,-1 1,-1l-2 0c-2,-1 -1,-1 -1,-2 -3,1 -1,-2 -3,0l2 1z"/>
   <path class="fil5" d="M282 281l-1 1 1 1 -1 2 0 -1c-2,2 -4,6 -5,9 -2,2 -4,6 -6,7l-3 4 -1 0 1 1 -2 2c1,-1 2,-1 2,-3 1,1 0,-1 1,1l1 -1c0,0 0,0 0,0 2,2 0,-1 1,3l0 -4c2,1 1,0 2,1 1,0 3,-2 5,-1 2,1 1,5 3,2l0 -1c0,0 0,0 1,0l3 0c0,3 0,1 -1,3 2,0 2,-1 3,0 1,-2 5,0 7,-15 1,-6 2,-17 0,-22 0,3 -1,5 -1,8 0,2 0,1 0,3l-1 2c-2,0 -2,-1 -3,-3l-1 3 -1 -2 -2 4 -1 -1 0 -3c-1,2 0,1 -1,0z"/>
   <path class="fil4" d="M257 215c3,0 7,-1 11,-1 4,0 10,0 13,0l4 0c-4,-2 -4,-2 -8,-2 0,-2 -1,-2 -2,-4 2,0 2,1 4,1 1,0 2,0 3,0 -1,-1 -4,-1 -5,-1 -1,-10 -3,-7 1,-8 -5,-2 -3,-2 -8,-1 -10,4 -13,6 -21,11l-1 2c-1,0 -1,0 -1,0 -1,0 0,0 -1,1 0,0 0,0 0,0 -1,0 -1,0 -1,1 1,0 1,1 1,-1 1,1 1,1 0,0 2,0 1,0 1,-1 1,1 1,1 1,0 0,0 1,1 1,1 1,0 1,0 1,-1 0,0 0,0 0,0 0,0 0,0 0,0 0,0 0,0 0,0 1,0 0,0 2,-1 0,1 0,1 0,1 -1,2 0,1 -1,2 2,0 1,0 3,0 0,0 0,0 0,0 0,0 0,0 0,0 0,0 0,0 0,0 0,-1 -1,0 1,-1l0 -1c0,0 1,1 0,2l3 0 -1 1z"/>
   <path class="fil4" d="M214 221c1,6 0,12 1,18 1,4 2,14 4,16l1 -6c0,-10 5,-25 10,-33l3 -4c0,-1 0,-1 1,-1l-1 0c1,-2 1,-2 0,-3 0,1 0,2 0,3 -1,2 1,0 -1,2 -1,0 -1,0 -1,-1l-1 4c-2,1 -2,2 -2,4 -1,0 -1,-1 -1,-1l-1 -1c0,0 0,0 0,0 1,0 1,1 1,0 0,0 0,0 0,0 0,-1 0,0 0,-2l-2 1c0,2 1,1 -1,2 -2,-1 -1,0 -1,-3 -2,1 -1,0 -4,0 0,-2 0,-1 -1,-3 1,0 0,0 0,0 -1,0 -1,-1 -1,0 -1,2 -1,4 -1,7l-1 0c0,0 -1,0 -1,0 0,0 0,1 0,1z"/>
   <path class="fil2" d="M377 224l13 11 -1 -2c11,2 19,3 30,2 8,-1 20,-4 21,-13 -3,1 -3,3 -9,5l-2 0c-3,4 -18,4 -24,4 -8,-1 -20,-4 -22,-4 1,2 2,1 2,2 0,0 0,0 0,0 0,0 0,0 -1,0 -1,-2 -2,-1 -3,-3 -2,-1 -1,-1 -4,-2z"/>
   <path class="fil6" d="M195 281c1,-1 3,1 5,2 11,5 22,7 34,7 4,0 14,-2 17,-2 -2,-2 -2,-1 -6,-2 -6,-1 -10,-4 -15,-8 -3,-1 -6,-5 -8,-7 -3,-3 -4,-6 -6,-9 -10,-12 -16,-31 -16,-46 -3,0 -2,0 -4,3 -1,1 0,0 -1,1 0,1 0,1 -1,2 0,0 0,1 0,1 -1,1 0,0 -1,1 0,2 0,1 0,1 0,2 0,1 -1,1 0,2 1,1 0,1 -1,2 -3,10 -4,13 -1,5 -1,10 -1,15 0,8 2,20 6,26l0 -1 2 1zm5 3l-1 -1 1 1zm-1 -1l-1 0 1 0zm-3 -1l-1 -1c0,1 0,1 1,1zm19 -20l0 2 1 1c1,0 0,0 0,1l0 0c3,0 1,0 3,2 1,1 2,2 3,3 1,1 1,2 2,3 1,2 1,1 3,3 1,1 5,4 6,4 1,1 2,2 3,3 2,1 2,0 4,2 2,1 4,1 5,2 -2,0 -6,1 -8,0 -2,1 -9,1 -13,0 -2,0 -3,1 -5,0 -2,-1 -2,-1 -5,-1 -7,-1 -4,-2 -8,-3 -5,0 -7,-3 -7,-3 -2,-1 -1,0 -4,-2 -2,-2 -2,0 -4,-6 -2,-8 -3,-11 -3,-22 0,-3 1,-6 1,-9l5 -17c0,-1 0,0 0,-1 3,-3 2,-4 4,-5 1,2 1,1 1,4 0,0 1,3 2,8 1,7 2,7 3,12 0,2 2,3 3,5 2,7 0,1 2,5 4,7 2,7 6,9z"/>
   <path class="fil7" d="M395 218c-3,0 -6,1 -9,1 -1,0 -2,0 -4,0 -1,0 -3,-1 -3,1 1,0 1,-1 1,0 2,0 1,0 1,1l1 0 0 0c2,0 11,3 12,4 2,0 1,0 2,1 2,0 5,1 8,1 2,0 5,1 8,1 6,1 11,0 17,-1l2 0c6,-2 6,-4 9,-5 -1,9 -13,12 -21,13 -11,1 -19,0 -30,-2l1 2 5 2 -1 -2c3,0 2,0 4,2 3,2 3,0 4,2l-1 -3c6,-1 5,1 5,2l5 0c-3,0 -2,0 -2,-1 2,-1 3,-1 6,-1 2,1 3,0 5,0 4,-1 1,0 4,0 2,0 4,0 6,0 -1,0 -1,-1 -2,-1 1,-1 1,-2 3,-1 3,-4 3,-2 5,-3 1,-1 1,-2 2,-3 1,-1 2,0 3,-3l0 -1c2,-3 4,-3 1,-8 -2,0 -2,1 -3,1 0,0 0,0 -1,1 0,0 0,0 -1,1l1 2c-4,2 -1,3 -12,5 -4,1 -20,0 -24,-1 -2,0 -1,0 -3,0 -6,-1 -4,-2 -9,-3 -3,0 -5,0 -6,-2 4,0 8,0 11,-2z"/>
   <path class="fil6" d="M278 336c2,0 1,0 1,-1 5,0 12,-7 15,-10l5 -5c4,-5 3,-5 5,-9 1,-2 0,-1 1,-1l0 -1c0,-1 0,-1 1,-1 -1,-2 -1,0 0,-1l0 -1c0,-1 0,-2 1,-4 0,0 0,0 0,0l1 0c-2,-3 3,-14 1,-21 -3,-9 -1,-8 -4,-16 -1,-1 -1,-3 -2,-5l-1 0c2,6 8,22 5,28 0,3 1,3 0,6 1,1 0,5 -1,6l0 2c1,1 1,2 0,2 -1,1 -3,7 -4,9 -2,4 -4,5 -6,8 -3,6 -9,9 -14,13l-1 0 -2 1 -1 1 -1 0 -1 1c-3,1 -9,3 -13,5 -5,1 -10,2 -15,3 7,2 38,-4 47,-8 7,-4 12,-6 18,-11 2,-2 5,-4 7,-7 2,-1 6,-6 6,-7 1,-1 1,-1 2,-3 0,0 1,-1 1,-1 1,-1 0,0 1,-1 0,-1 -1,-1 1,0 0,-2 -1,-1 0,-2 1,-2 -1,0 1,-1 0,-1 -1,0 0,-2 -2,2 -1,2 -3,4l-3 6c-1,1 -1,0 -2,1l-10 11c-2,1 -2,2 -4,2 -3,1 -2,1 -3,3 -1,1 -1,0 -3,2 -1,1 -8,4 -11,4 -1,3 -4,3 -7,4l-2 0c-1,1 -2,1 -4,1 -1,1 -2,1 -4,1 -4,1 -9,3 -11,1 1,-1 3,-1 5,0 -1,-3 0,-1 3,-3 2,-1 2,-1 4,-1 -2,-1 0,-1 1,-2z"/>
   <path class="fil7" d="M307 288c3,-6 -3,-22 -5,-28 -1,-3 -12,-23 -17,-25 0,-1 1,0 0,-1 -2,-3 -9,-8 -12,-10 -4,-3 -11,-5 -16,-6 1,0 4,-1 5,-1 11,-2 22,-1 33,1l8 2c2,1 2,1 3,1 -4,-2 -7,-3 -12,-4 -3,-1 -11,-2 -13,-3 -3,0 -9,0 -13,0 -4,0 -8,1 -11,1l-3 1 0 2c3,1 4,1 7,2 3,0 3,2 6,3 1,0 3,0 4,1 1,1 1,1 2,2 6,2 6,3 6,5 1,-3 1,2 1,2 2,1 1,0 3,0l2 2c0,1 0,1 1,2 -2,-1 0,0 -1,1 0,1 0,2 1,3l0 1 1 1 0 -1 -1 -1 0 -2c4,3 12,16 14,21 4,7 8,20 7,28zm0 -67l0 0 -1 0 1 0zm2 1l-2 0c0,0 2,1 3,1l-1 -1zm3 2l-2 -1c-1,1 1,1 2,1z"/>
   <path class="fil7" d="M195 220c-1,0 0,-1 -2,1 0,2 0,1 0,3 -1,0 -1,-1 0,1 -1,0 -2,-1 -1,1 -1,0 -1,-2 0,1 1,0 0,1 0,-1 1,0 1,1 1,-1 0,0 0,1 0,-1 1,-1 0,0 1,-1 0,0 0,-1 0,-1 1,-1 1,-1 1,-2 1,-1 0,0 1,-1 2,-3 1,-3 4,-3 0,15 6,34 16,46 2,3 3,6 6,9 2,2 5,6 8,7 5,4 9,7 15,8 4,1 4,0 6,2 -3,0 -13,2 -17,2 -12,0 -23,-2 -34,-7 -2,-1 -4,-3 -5,-2l0 0 1 1 2 1 1 0 0 0 1 1c15,7 27,8 44,7l4 0 1 -1c-1,0 -1,1 -1,-1 2,0 2,0 3,-1 1,1 1,0 3,0 -1,-3 -9,-2 -15,-5 -2,-1 -5,-3 -6,-4 -2,-2 -5,-2 -5,-5 -2,1 -4,-4 -5,-4 0,-2 1,-3 -1,-5 -1,1 0,4 -5,-4 -1,-2 -2,-3 -4,-5 -2,-4 -4,-8 -6,-12 -4,-8 -8,-23 -7,-32 -2,1 -5,5 -5,8z"/>
   <path class="fil2" d="M240 286c-2,-2 -2,-1 -4,-2 -1,-1 -2,-2 -3,-3 -1,0 -5,-3 -6,-4 -2,-2 -2,-1 -3,-3 -1,-1 -1,-2 -2,-3 -1,-1 -2,-2 -3,-3 -2,-2 0,-2 -3,-2l0 0c0,-1 1,-1 0,-1 -1,0 -1,1 -1,-1l0 -2c-1,1 -1,-1 -1,2 0,3 3,1 1,3 0,-1 0,0 -1,-1 0,7 1,6 -8,6 1,2 2,2 4,3 4,2 6,4 12,6 4,1 14,5 18,5z"/>
   <path class="fil4" d="M293 270c0,-5 -2,-8 -3,-12 0,-4 0,-3 -2,-5 1,5 0,11 -2,16 0,2 -1,4 -2,6 0,2 -2,5 -2,6 1,1 0,2 1,0l0 3 1 1 2 -4 1 2 1 -3c1,2 1,3 3,3l1 -2c0,-2 0,-1 0,-3 0,-3 1,-5 1,-8zm-12 14l0 1 1 -2 -1 -1 0 2z"/>
   <path class="fil5" d="M230 216l1 -4c0,1 0,1 1,1 2,-2 0,0 1,-2 -1,0 -1,0 -1,0 0,-1 0,-2 0,-2 1,-1 0,0 0,0 0,-1 1,-2 -1,1 0,-3 0,-1 -1,-2 0,1 1,0 -1,0 -1,0 -3,0 -4,0l-1 -2c-4,-1 -6,-2 -7,1 0,0 0,1 0,1 0,-1 0,-1 0,0 -2,3 -3,9 -3,13 0,0 0,-1 0,-1 0,0 1,0 1,0l1 0c0,-3 0,-5 1,-7 0,-1 0,0 1,0 0,0 1,0 0,0 1,2 1,1 1,3 3,0 2,1 4,0 0,3 -1,2 1,3 2,-1 1,0 1,-2l2 -1c0,2 0,1 0,2 0,0 0,0 0,0 0,1 0,0 -1,0 0,0 0,0 0,0l1 1c0,0 0,1 1,1 0,-2 0,-3 2,-4z"/>
   <path class="fil4" d="M244 291c-1,1 -4,1 -6,1 1,2 0,1 0,3 2,0 3,0 4,1 -1,1 -1,0 -2,0 -1,1 -1,0 -2,1 1,3 4,1 4,7 5,0 5,1 11,-3 2,-2 6,-4 8,-6 -2,0 -2,0 -3,1 -3,3 -6,2 -6,1l2 -1c-2,-1 -6,-1 -8,-2 2,-1 6,0 8,-1 -1,-1 1,-1 -2,-1l-6 0 2 -1 -4 0z"/>
   <path class="fil7" d="M315 224l0 1c2,3 5,5 7,7 2,1 5,5 6,7 13,19 16,43 4,63 -1,2 0,1 0,2 -2,1 0,-1 -1,1 -1,1 0,0 0,2 -2,-1 -1,-1 -1,0 -1,1 0,0 -1,1 0,0 -1,1 -1,1 -1,2 -1,2 -2,3l2 0c1,-2 2,-2 2,-5 1,1 1,1 1,0 1,-1 0,1 1,-1 1,-2 0,-1 0,-2 1,0 2,-3 3,-5 4,-9 3,-7 5,-14 0,-1 0,-2 1,-3 0,-6 0,-23 -3,-28 -1,-2 -2,-5 -2,-7 -4,-2 -1,-1 -3,-4 0,0 0,1 -1,-1 -1,-2 1,-2 -6,-8 -4,-3 -1,-2 -2,-3 -1,-1 -2,-1 -4,-2l-5 -5z"/>
   <path class="fil7" d="M348 201l1 1c4,3 22,7 28,8 6,1 20,2 27,0 3,0 4,-1 7,-2 1,-2 4,-3 4,-6 1,4 0,3 0,6 -1,0 -1,0 -1,1l0 1c-1,-1 -1,-1 -1,0 -1,0 0,0 0,1 -1,0 -1,-1 -1,0 -1,0 -1,0 0,1 -1,-1 -1,-1 -1,0 -1,0 -1,0 0,1 -1,-1 -1,-1 -1,0 -1,0 -1,0 -1,1 2,0 2,0 1,-1 1,1 1,1 1,0 1,0 1,0 0,-1 1,1 1,1 1,0l0 -1c1,1 1,1 1,0 1,0 1,0 0,-1 1,1 1,1 1,0l1 0 0 -2c3,-1 2,-5 1,-8l-3 0c2,0 1,0 1,2 0,0 0,0 1,-1 1,0 -2,-1 0,1 -1,2 -4,4 -6,5 -1,0 -1,0 -1,0 0,0 0,0 0,0l-1 -2c-1,2 0,1 0,3 -6,3 -1,0 -8,0 2,0 1,1 2,2 -4,1 -25,-1 -29,-2l-1 -2c-2,0 -2,0 -3,0 -2,0 0,0 -3,0l-13 -5c-1,0 -1,-1 -2,-1 -2,1 0,-1 -1,1l-1 0z"/>
   <path class="fil8" d="M249 290l-1 1 -2 1 6 0c3,0 1,0 2,1 -2,1 -6,0 -8,1 2,1 6,1 8,2l-2 1c0,1 3,2 6,-1 1,-1 1,-1 3,-1 2,-1 9,-9 11,-11 0,-1 0,0 -1,-1 -3,1 -6,3 -10,5 -4,1 -8,2 -12,2z"/>
   <path class="fil6" d="M411 208c2,0 0,0 1,1 -2,4 -10,6 -14,7 -3,1 -7,1 -10,1 -6,1 -9,-1 -10,2l1 1c0,1 0,0 1,0 0,1 -1,1 1,1 0,0 -1,0 1,0 2,2 9,4 12,4 1,1 0,1 2,1 -1,-1 0,-1 -2,-1 -1,-1 -10,-4 -12,-4l0 0 -1 0c0,-1 1,-1 -1,-1 0,-1 0,0 -1,0 0,-2 2,-1 3,-1 2,0 3,0 4,0 3,0 6,-1 9,-1 3,0 5,-1 8,-2 1,0 5,-2 6,-2 0,-1 0,-1 1,-1 0,-1 0,-1 1,0 -1,-1 -1,-1 0,-1 0,-1 0,-1 1,0 -1,-1 -1,-1 0,-1 0,-1 0,0 1,0 0,-1 -1,-1 0,-1 0,-1 0,-1 1,0l0 -1c0,-1 0,-1 1,-1 0,-3 1,-2 0,-6 0,3 -3,4 -4,6z"/>
   <path class="fil8" d="M248 212c0,1 0,1 -1,0 0,1 1,1 -1,1 1,1 1,1 0,0 0,2 0,1 -1,1 -1,1 -7,6 -7,6 0,0 0,0 1,1 5,-2 9,-4 15,-5l3 -1 1 -1 -3 0c1,-1 0,-2 0,-2l0 1c-2,1 -1,0 -1,1 0,0 0,0 0,0 0,0 0,0 0,0 0,0 0,0 0,0 -2,0 -1,0 -3,0 1,-1 0,0 1,-2 0,0 0,0 0,-1 -2,1 -1,1 -2,1 0,0 0,0 0,0 0,0 0,0 0,0 0,0 0,0 0,0 0,1 0,1 -1,1 0,0 -1,-1 -1,-1z"/>
   <path class="fil9" d="M269 301l-2 1c-3,5 -10,10 -14,14 -1,0 -5,3 -6,3l-3 0c2,2 18,2 20,0 -5,0 -10,1 -15,0 2,-1 9,-6 12,-8 3,-2 2,-2 3,-4l2 -3 1 0 3 -4c-1,1 -1,1 -2,2 0,0 -1,2 -1,2l0 -1 2 -2z"/>
   <path class="fil10" d="M262 186c-1,0 -1,-1 -3,0 0,1 1,1 0,1l3 -1zm-6 2l-6 4 0 0 -1 1c1,1 2,1 3,-1l4 -4zm-22 23l-1 0 1 0c-1,0 -1,0 -1,1 1,0 1,0 1,-1 1,1 0,1 0,0 0,0 0,-1 0,-1l1 1c-1,0 -1,0 0,1 0,0 0,0 0,-1 1,-1 5,-7 7,-9 1,-2 5,-6 7,-8l0 -1c-3,3 -14,13 -15,18z"/>
  </g>
 </g>
</svg>
